<svg width="13" height="9" viewBox="0 0 13 9" fill="none" xmlns="http://www.w3.org/2000/svg">
<path fill-rule="evenodd" clip-rule="evenodd" d="M12.3728 3.28992C12.3719 3.12284 12.3728 0.767768 12.3719 0.678817C12.3712 0.615745 12.3355 0.628039 12.2745 0.626376C12.2538 0.625801 12.1067 0.621775 12.0156 0.623703C11.7551 0.62922 9.87469 0.621589 9.48863 0.626283C9.3698 0.627728 9.33196 0.639851 9.3284 0.585343C9.32677 0.560459 9.32697 0.161961 9.32805 0.119483C9.33009 0.0380547 9.32359 0.00877227 9.36738 0.00216663C9.3762 0.00082996 10.0902 0.000332662 10.1737 0.000317119C11.3734 2.1808e-05 12.8545 -0.00103508 12.9293 0.00353446C12.9371 0.00401629 12.9857 0.00698488 12.9979 0.0735852C13.0014 0.0930758 12.9994 0.0932157 12.9994 0.321336C12.9991 2.82377 12.9996 2.82372 12.9986 3.0413C12.9973 3.31339 13.0014 3.32416 12.9738 3.33486C12.9636 3.33879 12.9572 3.34125 12.8375 3.34084C12.445 3.33951 12.4452 3.34165 12.4111 3.33958C12.3962 3.33868 12.3786 3.33313 12.3732 3.30464C12.3723 3.29983 12.3737 3.29474 12.3728 3.28992Z" fill="#2D2D2D"/>
<path fill-rule="evenodd" clip-rule="evenodd" d="M0.00221537 1.99974C0.00148472 1.60657 0.00215447 0.941591 0.0022458 0.849563C0.00294601 0.14865 -0.00166619 0.148681 0.00066277 0.0877695C0.0010281 0.0782108 0.00379847 0.00543996 0.081674 0.00142995C0.108008 6.21925e-05 3.25929 -0.00041966 3.43034 0.000404102C3.64244 0.00142992 3.64941 -0.00268889 3.66609 0.0211225C3.68368 0.0462084 3.67275 0.331385 3.67241 0.569841C3.67232 0.624707 3.64702 0.621458 3.61297 0.623184C3.51811 0.627971 3.51812 0.627334 2.4257 0.625189C1.60029 0.623572 1.03533 0.627442 0.736035 0.626712C0.680734 0.626587 0.63828 0.616096 0.628949 0.647306C0.625022 0.660408 0.626011 0.660455 0.625753 0.818493C0.625357 1.06192 0.625478 1.06158 0.625402 1.0827C0.623332 1.69264 0.625905 3.15616 0.625889 3.21206C0.625889 3.30877 0.636195 3.34046 0.568487 3.33944C0.425264 3.33726 0.32352 3.3407 0.157616 3.33959C0.0312893 3.33875 0.00538149 3.34886 0.00314386 3.28989C0.00146945 3.24567 0.00215448 2.10296 0.00221537 1.99974Z" fill="#2D2D2D"/>
<path fill-rule="evenodd" clip-rule="evenodd" d="M12.3751 7.93773C12.3758 7.80438 12.3735 5.79062 12.3764 5.71493C12.3765 5.71114 12.3776 5.68047 12.3978 5.67292C12.4284 5.66143 12.7553 5.66664 12.7615 5.66679C12.9107 5.6709 12.9628 5.6667 12.9733 5.672C12.9989 5.68491 13.0002 5.69606 12.9998 5.85497C12.9997 5.89476 12.9987 6.26455 12.9973 6.35238C12.994 6.55134 12.9992 6.75295 12.9989 7.00517C12.9972 8.67823 12.9955 8.67812 12.9964 8.8236C12.9965 8.83618 12.9971 8.94083 12.975 8.9794C12.9578 9.00938 12.8746 8.99586 12.7006 8.99714C11.7233 9.00427 10.8798 8.99588 10.4782 8.99927C10.4002 8.99992 10.3794 9.00011 9.50394 8.99952C9.36593 8.99942 9.33062 9.01203 9.32656 8.94759C9.32368 8.90175 9.32523 8.69062 9.32538 8.66828C9.327 8.44878 9.32464 8.44623 9.33578 8.43448C9.34691 8.42276 9.36058 8.42167 9.48873 8.4205C9.53986 8.42004 10.0008 8.41584 10.1281 8.41618C10.6253 8.41698 11.1225 8.41778 11.6198 8.41859C11.677 8.41878 12.2636 8.42081 12.3349 8.41626C12.3591 8.41472 12.3694 8.39006 12.3695 8.38964C12.3748 8.37266 12.3751 7.97388 12.3751 7.93773Z" fill="#2D2D2D"/>
<path fill-rule="evenodd" clip-rule="evenodd" d="M0.00232915 5.79196C0.00231393 5.70079 -0.00114145 5.68992 0.0152069 5.67603C0.02399 5.66857 0.0257558 5.66708 0.157624 5.66565C0.18685 5.66533 0.438788 5.66261 0.523012 5.66369C0.583123 5.66446 0.623203 5.6533 0.62404 5.71429C0.631087 6.23267 0.623324 6.2325 0.624664 6.4448C0.628104 6.98893 0.624466 8.13558 0.625455 8.2167C0.627586 8.38953 0.619138 8.41989 0.659766 8.42166C0.687774 8.42288 0.687637 8.41699 1.01007 8.41912C1.31113 8.42111 1.31098 8.41572 1.46673 8.41866C1.69315 8.42292 1.71475 8.41295 1.87775 8.41723C2.08124 8.42256 2.10677 8.41496 2.22784 8.41597C2.41812 8.41755 2.41792 8.41583 2.60836 8.41533C2.64246 8.41524 2.64241 8.41738 3.03459 8.41715C3.07721 8.41713 3.54726 8.41687 3.5674 8.41717C3.63441 8.41813 3.65912 8.41176 3.6695 8.45054C3.67342 8.46516 3.67668 8.8569 3.67295 8.94712C3.67044 9.00758 3.62337 8.9974 3.59783 8.99762C3.21065 9.00084 3.13641 8.9951 3.00416 8.99613C2.31794 9.00143 2.31799 8.99686 2.25832 8.99758C1.92453 9.00163 1.24866 8.99677 0.949181 8.99776C0.878536 8.99801 0.103647 9.00059 0.0661548 8.99506C0.0529726 8.99311 -0.000197604 8.98527 0.0021618 8.83826C0.00376011 8.73834 0.00331864 8.0805 0.00327297 8.01459C0.00295331 7.27372 0.00263359 6.53285 0.00232915 5.79196Z" fill="#2D2D2D"/>
<path fill-rule="evenodd" clip-rule="evenodd" d="M3.11666 4.21836C3.12214 4.21867 3.12147 4.21564 3.12685 4.21595C3.13887 4.21662 3.13805 4.21985 3.13904 4.2196C3.14093 4.21917 3.1618 4.18601 3.16368 4.18303C3.18939 4.14218 3.29764 3.99862 3.30625 3.98795C3.35311 3.92995 3.39052 3.87611 3.41218 3.84773C3.44046 3.81067 3.5073 3.71635 3.56387 3.64511C3.80777 3.33796 3.87849 3.20762 3.91705 3.19598C3.94726 3.18687 4.54789 3.19267 4.60383 3.18981C4.61705 3.18914 4.61825 3.18876 4.62674 3.20086C4.64201 3.22262 4.61697 3.23261 4.59444 3.26516C4.55241 3.32587 4.55243 3.32577 4.46649 3.43126C4.43214 3.47338 4.43571 3.47609 4.27315 3.68357C4.11273 3.88831 4.10279 3.91158 4.0524 3.97264C4.04015 3.98749 3.93611 4.11362 3.90139 4.16021C3.83821 4.24503 3.78171 4.30936 3.77679 4.33078C3.77424 4.34184 3.76988 4.36084 3.83844 4.45831C3.91023 4.56037 3.9439 4.62416 4.00378 4.70839C4.07129 4.80334 4.51507 5.49822 4.52463 5.51412C4.61009 5.6564 4.61036 5.65609 4.61758 5.66858C4.63813 5.70424 4.66273 5.71216 4.6375 5.73706C4.62963 5.74482 4.62849 5.74244 4.61746 5.74171C4.55193 5.73738 4.55199 5.74229 4.05449 5.74003C3.91927 5.73941 3.91047 5.74679 3.88052 5.70402C3.83662 5.64132 3.77096 5.53044 3.76188 5.51507C3.75192 5.49827 3.69017 5.39398 3.63215 5.30837C3.56356 5.20717 3.55531 5.18116 3.52627 5.13709C3.52196 5.13054 3.35126 4.85377 3.29954 4.76235C3.29205 4.74912 3.29441 4.74417 3.27966 4.74396C3.27518 4.7439 3.27037 4.74135 3.26623 4.74311C3.25177 4.74923 3.25499 4.75279 3.2457 4.76543C3.1554 4.88829 3.11971 4.89226 3.11682 4.95354C3.11665 4.95709 3.11566 5.32215 3.11573 5.60637C3.11575 5.71078 3.12619 5.74123 3.06517 5.74072C2.92408 5.73952 2.67457 5.73969 2.66926 5.73968C2.48194 5.73922 2.48154 5.73854 2.47014 5.73262C2.45662 5.72561 2.45407 5.72228 2.45475 5.55972C2.45844 4.7013 2.45461 3.2491 2.456 3.2283C2.45895 3.18391 2.4899 3.19165 2.57784 3.19091C2.81393 3.1889 2.81365 3.19021 3.0499 3.18794C3.09377 3.18752 3.11554 3.18036 3.11545 3.24405C3.11441 4.06626 3.12021 4.06635 3.11188 4.19181C3.1107 4.20965 3.11619 4.21579 3.11666 4.21836Z" fill="#2D2D2D"/>
<path fill-rule="evenodd" clip-rule="evenodd" d="M7.11442 5.06126C7.11929 5.06199 7.12415 5.06272 7.12901 5.06345C7.13305 5.06308 7.1354 5.07023 7.13943 5.06987C7.14112 5.06972 7.14071 5.06905 7.14972 5.04942C7.16409 5.01815 7.14481 5.0132 7.17186 4.93614C7.18044 4.91169 7.1716 4.90905 7.26115 4.62462C7.26658 4.60738 7.26521 4.607 7.32439 4.40788C7.39228 4.17946 7.38518 4.17757 7.43791 4.02164C7.43829 4.02052 7.57338 3.55975 7.62413 3.38085C7.63757 3.33346 7.63539 3.33321 7.65794 3.25727C7.67261 3.20788 7.67742 3.19208 7.72297 3.19143C7.99413 3.18751 8.25511 3.18938 8.30137 3.18972C8.32058 3.18986 8.36334 3.18557 8.37381 3.19911C8.38643 3.21543 8.37156 3.235 8.36548 3.25955C8.34536 3.34089 8.13069 3.95556 8.1246 3.97548C8.09373 4.07654 8.02247 4.27605 8.01386 4.30053C7.98632 4.37886 7.85171 4.80383 7.84823 4.81401C7.84276 4.82997 7.84327 4.82991 7.78229 5.01434C7.77699 5.03035 7.75891 5.07413 7.72694 5.17165C7.66043 5.37459 7.66313 5.3753 7.59344 5.57706C7.54831 5.70774 7.55738 5.73805 7.49455 5.73972C7.47153 5.74034 6.76455 5.74006 6.7332 5.73752C6.68647 5.73376 6.68888 5.72075 6.64659 5.60392C6.63326 5.56702 6.61939 5.50741 6.56433 5.34185C6.51246 5.18584 6.51807 5.1843 6.46544 5.0282C6.41479 4.87806 6.37109 4.72338 6.33256 4.6127C6.32739 4.59787 6.30032 4.50737 6.28161 4.45373C6.26213 4.3979 6.05294 3.74864 6.04499 3.72608C6.03663 3.70238 6.03857 3.70176 5.94909 3.42686C5.89533 3.26164 5.89285 3.25536 5.88711 3.24078C5.8633 3.1804 5.91752 3.19092 5.97235 3.19033C6.01741 3.18985 6.49719 3.18464 6.53559 3.18708C6.57945 3.18986 6.59053 3.20506 6.61459 3.30438C6.63355 3.38258 6.88632 4.23703 6.90065 4.3C6.90217 4.30668 6.95703 4.48786 6.95712 4.48811C6.97965 4.55575 6.97715 4.55619 6.9972 4.62475C7.01053 4.67036 7.04834 4.80703 7.09657 4.96895C7.11001 5.01412 7.1046 5.01515 7.11442 5.06126Z" fill="#2D2D2D"/>
<path fill-rule="evenodd" clip-rule="evenodd" d="M4.91023 4.17605C4.91063 3.30386 4.90725 3.30388 4.90973 3.22809C4.90985 3.22442 4.91077 3.19671 4.9361 3.19105C4.94596 3.18886 5.25935 3.18881 5.28746 3.18881C5.36881 3.1888 5.3686 3.18849 5.42449 3.18819C5.54456 3.18755 5.57233 3.18239 5.58469 3.21412C5.58671 3.21932 5.58673 3.28403 5.58673 3.2901C5.58696 5.42638 5.5862 5.47792 5.58344 5.66815C5.58327 5.67964 5.59257 5.73183 5.54583 5.73921C5.53328 5.7412 5.08408 5.7391 5.04393 5.73892C4.94465 5.73845 4.91299 5.74465 4.91122 5.69902C4.90736 5.59863 4.90999 4.29789 4.91023 4.17605Z" fill="#2D2D2D"/>
<path fill-rule="evenodd" clip-rule="evenodd" d="M9.42749 3.16291C9.52614 3.14157 9.796 3.12995 9.94605 3.16096C9.97263 3.16646 10.0543 3.17624 10.1453 3.20588C10.1874 3.21962 10.365 3.27726 10.4949 3.38166C10.7584 3.59359 10.828 3.79159 10.8787 3.94123C10.8847 3.95913 10.9155 4.07008 10.9177 4.08283C10.9405 4.22342 10.9413 4.24003 10.9421 4.25373C10.9537 4.43926 10.9484 4.55372 10.947 4.5799C10.9398 4.72133 10.925 4.77338 10.9236 4.78303C10.9133 4.85424 10.9115 4.85393 10.8943 4.92365C10.8875 4.95127 10.8516 5.09487 10.7625 5.24494C10.6679 5.40401 10.5656 5.48774 10.5447 5.50471C10.3966 5.6247 10.3934 5.62097 10.2468 5.69221C10.2046 5.71274 10.0689 5.75311 10.0359 5.75959C9.93056 5.78029 9.93091 5.78374 9.82398 5.79182C9.67964 5.80272 9.67908 5.79843 9.53492 5.79084C9.43524 5.78559 9.4357 5.77848 9.36597 5.76643C9.25282 5.74688 9.08428 5.68372 9.01441 5.64143C8.91411 5.5807 8.82342 5.51811 8.73023 5.41682C8.56038 5.23213 8.48259 4.98377 8.46851 4.9217C8.44408 4.81397 8.44001 4.81465 8.43042 4.70393C8.41097 4.4793 8.41993 4.38931 8.42261 4.36213C8.43133 4.27384 8.43292 4.16754 8.45679 4.08381C8.50739 3.9063 8.53511 3.7829 8.69898 3.57111C8.75581 3.50105 8.79839 3.46263 8.86792 3.40315C9.10082 3.20387 9.40162 3.16854 9.42749 3.16291ZM9.76343 3.70393C9.42341 3.68186 9.30536 3.83726 9.23316 3.94514C9.16835 4.04195 9.12852 4.20505 9.12281 4.25373C9.07517 4.66081 9.17563 4.88784 9.198 4.9383C9.2332 5.01765 9.30147 5.09687 9.32691 5.11701C9.58723 5.322 9.88546 5.20712 9.91773 5.19416C10.1169 5.11396 10.1789 4.94448 10.2019 4.89045C10.225 4.83641 10.2557 4.7008 10.2595 4.65705C10.2834 4.38251 10.2569 4.25647 10.2498 4.22248C10.2278 4.11852 10.2068 4.01619 10.1013 3.87776C10.0768 3.84821 10.0777 3.84749 10.0496 3.82111C10.0311 3.80378 9.93662 3.71526 9.76343 3.70393Z" fill="#2D2D2D"/>
</svg>
