<svg width="98" height="66" viewBox="0 0 98 66" fill="none" xmlns="http://www.w3.org/2000/svg">
<path fill-rule="evenodd" clip-rule="evenodd" d="M93.2722 24.1261C93.2652 22.9008 93.2722 5.6303 93.265 4.97799C93.2598 4.51546 92.9905 4.60562 92.5307 4.59342C92.3747 4.58921 91.2664 4.55969 90.5792 4.57382C88.6153 4.61428 74.4401 4.55832 71.5298 4.59274C70.6341 4.60334 70.3488 4.69224 70.322 4.29252C70.3097 4.11004 70.3112 1.18771 70.3193 0.876207C70.3347 0.279068 70.2857 0.06433 70.6158 0.0158886C70.6823 0.00608637 76.0651 0.00243952 76.694 0.00232554C85.7381 0.000159926 96.9035 -0.00759061 97.4674 0.0259194C97.5258 0.0294528 97.8922 0.0512224 97.9841 0.539625C98.0111 0.682556 97.9959 0.683582 97.9957 2.35646C97.9934 20.7076 97.9973 20.7073 97.9897 22.3029C97.9801 24.2982 98.0109 24.3772 97.8024 24.4556C97.7255 24.4845 97.6777 24.5025 96.7756 24.4995C93.8161 24.4897 93.8175 24.5054 93.5608 24.4903C93.4481 24.4837 93.3161 24.443 93.2753 24.2341C93.2684 24.1987 93.2791 24.1614 93.2722 24.1261Z" fill="#FA951F"/>
<path fill-rule="evenodd" clip-rule="evenodd" d="M0.0167005 14.6647C0.0111925 11.7815 0.0162414 6.905 0.0169299 6.23013C0.0222084 1.0901 -0.0125605 1.09033 0.00499627 0.643643C0.00775027 0.573546 0.0286346 0.039893 0.615696 0.0104863C0.814214 0.000456078 24.57 -0.00307751 25.8595 0.00296341C27.4584 0.0104861 27.5109 -0.0197185 27.6367 0.154898C27.7693 0.338861 27.6869 2.43016 27.6843 4.17883C27.6836 4.58118 27.4929 4.55736 27.2362 4.57001C26.5211 4.60512 26.5212 4.60045 18.2861 4.58472C12.0637 4.57286 7.80479 4.60124 5.54858 4.59589C5.13169 4.59497 4.81165 4.51804 4.74131 4.74691C4.7117 4.84299 4.71916 4.84334 4.71721 6.00228C4.71423 7.78743 4.71514 7.78492 4.71457 7.93982C4.69896 12.4127 4.71836 23.1452 4.71824 23.5551C4.71824 24.2643 4.79593 24.4967 4.28552 24.4892C3.20584 24.4732 2.43885 24.4984 1.18818 24.4903C0.235873 24.4842 0.0405682 24.5583 0.0236999 24.1258C0.0110774 23.8016 0.0162415 15.4217 0.0167005 14.6647Z" fill="#FB971E"/>
<path fill-rule="evenodd" clip-rule="evenodd" d="M93.2893 58.21C93.2949 57.2321 93.2776 42.4646 93.2987 41.9095C93.2997 41.8817 93.3083 41.6568 93.46 41.6014C93.691 41.5172 96.1554 41.5553 96.2019 41.5565C97.3267 41.5866 97.7198 41.5558 97.799 41.5947C97.9917 41.6894 98.0016 41.7711 97.9985 42.9364C97.9977 43.2282 97.9905 45.94 97.9795 46.5841C97.9546 48.0432 97.9938 49.5216 97.9919 51.3713C97.9789 63.6404 97.9665 63.6396 97.9729 64.7064C97.9735 64.7986 97.9781 65.5661 97.8116 65.849C97.682 66.0688 97.0548 65.9697 95.7428 65.979C88.3755 66.0313 82.017 65.9698 78.9894 65.9946C78.4018 65.9994 78.2445 66.0008 71.6451 65.9965C70.6048 65.9958 70.3386 66.0882 70.3079 65.6156C70.2862 65.2795 70.298 63.7312 70.2991 63.5674C70.3113 61.9577 70.2935 61.939 70.3775 61.8528C70.4614 61.7669 70.5644 61.7589 71.5305 61.7504C71.9159 61.7469 75.3907 61.7162 76.35 61.7187C80.0984 61.7245 83.847 61.7304 87.5954 61.7363C88.0266 61.7377 92.4485 61.7527 92.9862 61.7193C93.1685 61.708 93.2461 61.5271 93.2472 61.524C93.2873 61.3995 93.2892 58.4752 93.2893 58.21Z" fill="#F3821E"/>
<path fill-rule="evenodd" clip-rule="evenodd" d="M0.0175113 42.4744C0.0173965 41.8058 -0.00865171 41.7262 0.11459 41.6243C0.180801 41.5695 0.194112 41.5586 1.18819 41.5481C1.40851 41.5458 3.30774 41.5259 3.94266 41.5338C4.3958 41.5395 4.69794 41.4576 4.70425 41.9049C4.75738 45.7063 4.69886 45.7051 4.70896 47.2619C4.73489 51.2522 4.70747 59.661 4.71492 60.2558C4.73099 61.5233 4.6673 61.7459 4.97357 61.7589C5.18471 61.7679 5.18368 61.7247 7.61432 61.7403C9.88384 61.7549 9.8827 61.7153 11.0568 61.7369C12.7637 61.7681 12.9266 61.695 14.1553 61.7264C15.6893 61.7655 15.8817 61.7097 16.7944 61.7172C18.2288 61.7288 18.2273 61.7161 19.663 61.7125C19.92 61.7118 19.9197 61.7275 22.8761 61.7258C23.1974 61.7257 26.7409 61.7238 26.8927 61.7259C27.3978 61.733 27.5841 61.6863 27.6623 61.9706C27.6919 62.0779 27.7165 64.9506 27.6884 65.6123C27.6694 66.0557 27.3146 65.981 27.1221 65.9826C24.2033 66.0062 23.6437 65.9641 22.6467 65.9717C17.4736 66.0105 17.474 65.977 17.0242 65.9823C14.5079 66.012 9.41291 65.9763 7.15532 65.9836C6.62276 65.9855 0.781288 66.0044 0.498659 65.9638C0.399285 65.9496 -0.00153658 65.892 0.0162497 64.814C0.0282985 64.0812 0.0249705 59.257 0.0246262 58.7737C0.0222165 53.3407 0.0198063 47.9076 0.0175113 42.4744Z" fill="#F4841E"/>
<path fill-rule="evenodd" clip-rule="evenodd" d="M23.495 30.9346C23.5363 30.9369 23.5312 30.9147 23.5717 30.917C23.6624 30.9219 23.6562 30.9456 23.6636 30.9437C23.6779 30.9406 23.8352 30.6974 23.8494 30.6755C24.0432 30.376 24.8592 29.3232 24.9242 29.245C25.2774 28.8196 25.5594 28.4248 25.7227 28.2167C25.9359 27.9449 26.4398 27.2532 26.8662 26.7308C28.7048 24.4784 29.238 23.5225 29.5286 23.4372C29.7564 23.3704 34.2842 23.4129 34.7059 23.3919C34.8055 23.387 34.8146 23.3843 34.8786 23.4729C34.9937 23.6325 34.805 23.7058 34.6351 23.9445C34.3183 24.3897 34.3184 24.389 33.6705 25.1626C33.4117 25.4715 33.4385 25.4913 32.2131 27.0128C31.0037 28.5143 30.9288 28.6849 30.549 29.1327C30.4566 29.2416 29.6723 30.1665 29.4106 30.5082C28.9343 31.1302 28.5084 31.602 28.4713 31.759C28.452 31.8402 28.4192 31.9795 28.9361 32.6942C29.4772 33.4427 29.731 33.9105 30.1825 34.5282C30.6914 35.2245 34.0368 40.3203 34.1089 40.4369C34.7531 41.4802 34.7552 41.478 34.8095 41.5696C34.9645 41.8311 35.1499 41.8892 34.9598 42.0718C34.9004 42.1287 34.8918 42.1112 34.8086 42.1059C34.3146 42.0741 34.3151 42.1101 30.5647 42.0936C29.5454 42.089 29.4791 42.1432 29.2532 41.8295C28.9223 41.3697 28.4274 40.5566 28.3589 40.4438C28.2838 40.3206 27.8183 39.5558 27.381 38.928C26.8639 38.1859 26.8017 37.9952 26.5828 37.672C26.5503 37.624 25.2635 35.5943 24.8736 34.9239C24.8171 34.8269 24.8349 34.7906 24.7237 34.7891C24.69 34.7886 24.6537 34.7699 24.6225 34.7828C24.5135 34.8277 24.5377 34.8538 24.4677 34.9465C23.787 35.8475 23.5179 35.8766 23.4961 36.326C23.4948 36.352 23.4874 39.0291 23.488 41.1133C23.4881 41.8791 23.5668 42.1023 23.1068 42.0986C22.0431 42.0898 20.1623 42.0911 20.1222 42.091C18.7101 42.0876 18.7071 42.0826 18.6212 42.0392C18.5193 41.9878 18.5 41.9634 18.5052 40.7713C18.5329 34.4762 18.5041 23.8267 18.5146 23.6742C18.5368 23.3487 18.7701 23.4055 19.433 23.4C21.2128 23.3853 21.2107 23.3949 22.9917 23.3782C23.3224 23.3752 23.4865 23.3226 23.4858 23.7897C23.478 29.8192 23.5217 29.8199 23.4589 30.7399C23.45 30.8708 23.4914 30.9158 23.495 30.9346Z" fill="white"/>
<path fill-rule="evenodd" clip-rule="evenodd" d="M53.6319 37.1159C53.6686 37.1213 53.7052 37.1267 53.7418 37.132C53.7724 37.1293 53.79 37.1817 53.8205 37.1791C53.8332 37.1779 53.8301 37.173 53.898 37.0291C54.0064 36.7998 53.861 36.7635 54.0649 36.1984C54.1296 36.0191 54.0629 35.9997 54.738 33.9139C54.779 33.7875 54.7686 33.7847 55.2148 32.3245C55.7266 30.6494 55.673 30.6355 56.0705 29.4921C56.0733 29.4839 57.0917 26.1048 57.4743 24.7929C57.5756 24.4454 57.5592 24.4436 57.7292 23.8867C57.8398 23.5244 57.8761 23.4086 58.2194 23.4039C60.2636 23.3751 62.2309 23.3888 62.5797 23.3913C62.7245 23.3923 63.0468 23.3609 63.1258 23.4602C63.2209 23.5798 63.1088 23.7233 63.063 23.9034C62.9113 24.4999 61.293 29.0074 61.2471 29.1536C61.0144 29.8946 60.4772 31.3577 60.4123 31.5372C60.2047 32.1117 59.19 35.2281 59.1637 35.3028C59.1225 35.4198 59.1263 35.4194 58.6666 36.7718C58.6266 36.8892 58.4903 37.2103 58.2493 37.9254C57.748 39.4137 57.7683 39.4189 57.243 40.8985C56.9028 41.8568 56.9711 42.0791 56.4975 42.0913C56.324 42.0958 50.9944 42.0938 50.7581 42.0752C50.4058 42.0476 50.424 41.9522 50.1052 41.0954C50.0047 40.8248 49.9001 40.3877 49.4851 39.1736C49.094 38.0295 49.1364 38.0182 48.7395 36.8735C48.3578 35.7725 48.0283 34.6381 47.7379 33.8265C47.6989 33.7178 47.4949 33.0541 47.3538 32.6607C47.2069 32.2513 45.6299 27.49 45.57 27.3246C45.507 27.1508 45.5216 27.1463 44.8471 25.1303C44.4418 23.9187 44.4231 23.8726 44.3798 23.7657C44.2004 23.3229 44.6091 23.4001 45.0224 23.3958C45.3621 23.3922 48.9789 23.354 49.2684 23.3719C49.599 23.3923 49.6826 23.5038 49.864 24.2321C50.0068 24.8056 51.9124 31.0716 52.0204 31.5333C52.0318 31.5823 52.4454 32.911 52.4461 32.9128C52.6159 33.4089 52.5971 33.4121 52.7482 33.9148C52.8487 34.2494 53.1338 35.2516 53.4973 36.439C53.5986 36.7702 53.5579 36.7778 53.6319 37.1159Z" fill="white"/>
<path fill-rule="evenodd" clip-rule="evenodd" d="M37.0156 30.6244C37.0186 24.2283 36.9931 24.2284 37.0118 23.6727C37.0127 23.6458 37.0196 23.4425 37.2105 23.401C37.2849 23.385 39.6474 23.3846 39.8593 23.3846C40.4726 23.3845 40.4709 23.3822 40.8923 23.3801C41.7975 23.3754 42.0068 23.3376 42.0999 23.5702C42.1152 23.6084 42.1153 24.0829 42.1153 24.1274C42.117 39.7935 42.1113 40.1714 42.0905 41.5664C42.0893 41.6507 42.1594 42.0334 41.807 42.0875C41.7124 42.1021 38.3262 42.0867 38.0234 42.0854C37.275 42.082 37.0364 42.1274 37.023 41.7928C36.9939 41.0566 37.0138 31.5179 37.0156 30.6244Z" fill="white"/>
<path fill-rule="evenodd" clip-rule="evenodd" d="M71.0665 23.1954C71.8086 23.0385 73.8475 22.949 74.9796 23.1768C75.1799 23.2172 75.7951 23.2895 76.4805 23.5069C76.7983 23.6076 78.1346 24.0325 79.1133 24.7979C81.1009 26.3524 81.63 27.8038 82.0118 28.9014C82.0578 29.0337 82.2891 29.8612 82.3028 29.9434C82.4754 30.9822 82.4829 31.0953 82.4893 31.1963C82.5769 32.5582 82.5325 33.3959 82.5225 33.587C82.4678 34.6237 82.3552 35.0035 82.3448 35.0743C82.2673 35.5975 82.2538 35.593 82.1241 36.1045C82.0737 36.3031 81.8054 37.3619 81.1299 38.4668C80.4173 39.6327 79.6476 40.2394 79.4893 40.3643C78.3719 41.2453 78.3508 41.2211 77.2442 41.7442C76.9259 41.8947 75.9076 42.1886 75.6583 42.2364C74.8602 42.3889 74.8644 42.4122 74.0538 42.4717C72.9646 42.5517 72.9654 42.5187 71.8751 42.4629C71.1236 42.4244 71.1303 42.3766 70.6046 42.2881C69.7515 42.1448 68.4817 41.6793 67.9551 41.3692C67.1992 40.9239 66.513 40.4692 65.8106 39.7266C64.5302 38.3726 63.9492 36.5516 63.8428 36.0958C63.658 35.3022 63.6223 35.3086 63.5499 34.4952C63.4034 32.8493 63.47 32.1921 63.4903 31.9922C63.5563 31.3442 63.5718 30.5633 63.752 29.9483C64.1334 28.6465 64.338 27.7406 65.5733 26.1875C66.0022 25.673 66.327 25.3946 66.8516 24.9581C68.6071 23.4969 70.8709 23.2367 71.0665 23.1954ZM73.5987 27.1641C71.035 27.0023 70.1508 28.1425 69.6065 28.9336C69.118 29.6435 68.8176 30.8373 68.7745 31.1944C68.4152 34.1809 69.1727 35.8448 69.3409 36.2139C69.6068 36.7971 70.1189 37.3823 70.3096 37.5284C72.2777 39.036 74.5333 38.1789 74.7657 38.0879C76.2691 37.4989 76.7317 36.2547 76.9044 35.8604C77.0781 35.4641 77.3122 34.4752 77.3409 34.1543C77.5215 32.1393 77.3207 31.2162 77.2667 30.9668C77.101 30.2039 76.9416 29.4554 76.1456 28.4395C75.9608 28.2228 75.9704 28.2165 75.7589 28.0235C75.6218 27.8983 74.9085 27.2468 73.5987 27.1641Z" fill="white"/>
</svg>
