
<svg xmlns="http://www.w3.org/2000/svg" width="2120" height="1061" viewBox="0 0 2120 1061" fill="none">
<path d="M2120 1060.51L2110 1060.5V1059.5H2120C2120 1059.66 2120 1059.83 2120 1060C2120 1060.17 2120 1060.34 2120 1060.51ZM0 1059.49L10 1059.5V1060.5H0V1059.49ZM2119.8 1039.35L2109.8 1039.54C2109.8 1039.21 2109.79 1038.88 2109.79 1038.55L2119.78 1038.35C2119.79 1038.68 2119.8 1039.02 2119.8 1039.35ZM10.2148 1038.54C10.2082 1038.88 10.2017 1039.21 10.1953 1039.54L0.197266 1039.35C0.203667 1039.01 0.211061 1038.68 0.217773 1038.34L10.2148 1038.54ZM2119.19 1018.3L2109.2 1018.68C2109.19 1018.35 2109.18 1018.02 2109.16 1017.69L2119.15 1017.3C2119.17 1017.63 2119.18 1017.96 2119.19 1018.3ZM10.8369 1017.69C10.8238 1018.02 10.8106 1018.35 10.7979 1018.68L0.805664 1018.3C0.818562 1017.96 0.832497 1017.63 0.845703 1017.3L10.8369 1017.69ZM2118.17 997.263L2113.18 997.555L2108.19 997.846C2108.17 997.514 2108.15 997.182 2108.13 996.85L2118.11 996.258C2118.13 996.593 2118.15 996.928 2118.17 997.263ZM11.8672 996.848C11.8475 997.18 11.828 997.512 11.8086 997.844L1.82715 997.261C1.8467 996.926 1.86588 996.591 1.88574 996.256L11.8672 996.848ZM2116.66 975.201C2116.68 975.534 2116.71 975.868 2116.73 976.201L2106.77 976.981C2106.74 976.65 2106.71 976.32 2106.69 975.99L2116.66 975.201ZM8.32715 975.593L13.3115 975.988C13.2854 976.318 13.2592 976.648 13.2334 976.979L3.26465 976.199C3.29075 975.866 3.31637 975.532 3.34277 975.198L8.32715 975.593ZM2114.79 954.259C2114.82 954.59 2114.86 954.921 2114.89 955.253L2104.94 956.23C2104.91 955.901 2104.87 955.573 2104.84 955.244L2114.79 954.259ZM15.1592 955.242C15.1267 955.571 15.0947 955.899 15.0625 956.228L5.11035 955.251C5.14286 954.92 5.17617 954.588 5.20898 954.257L15.1592 955.242ZM2112.62 934.261L2107.65 934.848V934.847L2102.69 935.434C2102.65 935.104 2102.61 934.775 2102.57 934.445L2112.5 933.262C2112.54 933.595 2112.58 933.928 2112.62 934.261ZM17.4287 934.443C17.3894 934.773 17.3505 935.103 17.3115 935.433L7.37988 934.259C7.41925 933.926 7.45935 933.593 7.49902 933.26L17.4287 934.443ZM2109.94 913.357L2100.03 914.729C2099.99 914.401 2099.94 914.073 2099.9 913.745L2109.8 912.365C2109.85 912.696 2109.89 913.027 2109.94 913.357ZM20.1035 913.743C20.0579 914.071 20.0121 914.399 19.9668 914.727L10.0625 913.356C10.1083 913.025 10.1541 912.694 10.2002 912.363L20.1035 913.743ZM2106.69 891.539C2106.74 891.87 2106.79 892.202 2106.84 892.533L2096.97 894.101C2096.92 893.772 2096.86 893.444 2096.81 893.115L2106.69 891.539ZM18.25 892.325L23.1875 893.114C23.1351 893.442 23.0833 893.771 23.0312 894.099L13.1553 892.531C13.2079 892.2 13.2606 891.868 13.3135 891.537L18.25 892.325ZM2103.33 871.718L2098.41 872.601V872.6L2093.49 873.482C2093.43 873.156 2093.37 872.83 2093.31 872.504L2103.15 870.731C2103.21 871.06 2103.27 871.389 2103.33 871.718ZM26.6904 872.502C26.6317 872.828 26.5731 873.154 26.5146 873.481L21.5928 872.598L16.6719 871.716C16.7309 871.387 16.7903 871.058 16.8496 870.729L26.6904 872.502ZM2099.41 851.043L2089.6 853.003C2089.54 852.679 2089.47 852.355 2089.41 852.031L2099.21 850.062C2099.28 850.389 2099.34 850.716 2099.41 851.043ZM30.5918 852.029C30.5267 852.353 30.4622 852.678 30.3975 853.002L20.5918 851.041C20.6572 850.714 20.7224 850.387 20.7881 850.06L30.5918 852.029ZM2094.85 829.411C2094.92 829.738 2094.99 830.065 2095.07 830.392L2085.3 832.549C2085.23 832.225 2085.16 831.901 2085.08 831.577L2094.85 829.411ZM25.1523 829.41L34.915 831.575C34.8432 831.899 34.7718 832.224 34.7002 832.548L24.9355 830.392L24.9346 830.391C24.9453 830.342 24.9561 830.294 24.9668 830.245L25.1523 829.41ZM2090.31 809.858L2085.46 811.034L2085.45 811.033L2080.59 812.21C2080.52 811.889 2080.44 811.567 2080.36 811.245L2090.08 808.884C2090.16 809.209 2090.23 809.534 2090.31 809.858ZM34.7803 810.063L39.6396 811.243C39.5615 811.565 39.4831 811.886 39.4053 812.208L29.6865 809.857C29.7651 809.532 29.844 809.207 29.9229 808.883L34.7803 810.063ZM2084.9 788.469C2084.99 788.793 2085.07 789.117 2085.16 789.441L2075.49 791.986C2075.4 791.665 2075.32 791.344 2075.23 791.023L2084.9 788.469ZM35.0986 788.467L44.7666 791.022C44.6817 791.343 44.5973 791.664 44.5127 791.985L34.8418 789.44C34.9025 789.209 34.9635 788.978 35.0244 788.747L35.0986 788.467ZM2079.58 769.089L2069.96 771.827C2069.87 771.509 2069.78 771.19 2069.69 770.871L2079.31 768.123C2079.4 768.445 2079.49 768.767 2079.58 769.089ZM50.3086 770.87C50.2175 771.189 50.1259 771.508 50.0352 771.826L40.418 769.087C40.5096 768.765 40.6024 768.444 40.6943 768.122L50.3086 770.87ZM2073.32 747.943C2073.42 748.262 2073.51 748.582 2073.61 748.9L2064.05 751.832C2063.96 751.516 2063.86 751.2 2063.76 750.884L2073.32 747.943ZM46.6797 747.942L51.459 749.412L56.2383 750.883C56.1412 751.199 56.0441 751.514 55.9473 751.83L46.3867 748.899C46.4845 748.581 46.5816 748.261 46.6797 747.942ZM2067.23 728.793L2057.73 731.915C2057.62 731.6 2057.52 731.285 2057.42 730.97L2066.91 727.839C2067.02 728.157 2067.12 728.475 2067.23 728.793ZM62.583 730.969C62.4791 731.284 62.3751 731.599 62.2715 731.914L52.7715 728.792C52.8761 728.474 52.9811 728.156 53.0859 727.838L62.583 730.969ZM2060.12 707.892C2060.23 708.207 2060.34 708.523 2060.45 708.838L2051.01 712.149C2050.9 711.837 2050.79 711.525 2050.68 711.213L2060.12 707.892ZM64.6006 709.551L69.3164 711.212C69.2065 711.524 69.0969 711.836 68.9873 712.148L59.5518 708.837C59.6624 708.522 59.7728 708.206 59.8838 707.891L64.6006 709.551ZM2053.27 689.031L2048.59 690.781L2043.91 692.531C2043.79 692.22 2043.67 691.909 2043.56 691.599L2052.92 688.09C2053.04 688.404 2053.16 688.717 2053.27 689.031ZM71.7617 689.843L76.4434 691.598C76.3269 691.908 76.2109 692.219 76.0947 692.53L66.7275 689.03L66.7266 689.029C66.8438 688.716 66.9625 688.403 67.0801 688.089L71.7617 689.843ZM2045.69 669.347L2036.4 673.033C2036.27 672.725 2036.15 672.417 2036.03 672.109L2045.32 668.413C2045.44 668.724 2045.57 669.036 2045.69 669.347ZM74.6787 668.413L83.9707 672.108C83.8483 672.416 83.7256 672.724 83.6035 673.032L74.3086 669.346C74.432 669.035 74.5541 668.723 74.6777 668.412L74.6787 668.413ZM2037.73 649.853L2028.51 653.725C2028.39 653.42 2028.26 653.114 2028.13 652.81L2037.34 648.929C2037.47 649.237 2037.6 649.545 2037.73 649.853ZM91.8711 652.81C91.7428 653.114 91.6143 653.419 91.4863 653.724L86.877 651.787L82.2666 649.852C82.3959 649.544 82.5257 649.236 82.6553 648.929L91.8711 652.81ZM2028.96 629.567C2029.1 629.873 2029.23 630.179 2029.37 630.484L2020.23 634.541C2020.1 634.238 2019.96 633.935 2019.83 633.632L2028.96 629.567ZM91.0381 629.566L100.175 633.631C100.04 633.934 99.905 634.237 99.7705 634.54L90.6309 630.484C90.7542 630.206 90.8774 629.928 91.001 629.65L91.0381 629.566ZM2020.63 611.309L2011.57 615.547C2011.43 615.247 2011.29 614.947 2011.15 614.648L2020.2 610.4C2020.35 610.703 2020.49 611.006 2020.63 611.309ZM104.322 612.523L108.849 614.647C108.708 614.946 108.568 615.246 108.428 615.546L99.3701 611.309C99.5119 611.006 99.6538 610.703 99.7959 610.4L104.322 612.523ZM117.902 595.836C117.756 596.133 117.608 596.431 117.462 596.729L108.491 592.311C108.639 592.01 108.787 591.71 108.936 591.409L117.902 595.836ZM2011.06 591.41C2011.21 591.71 2011.36 592.01 2011.51 592.311L2002.54 596.729C2002.39 596.431 2002.25 596.133 2002.1 595.836L2011.06 591.41ZM118.457 572.597L127.333 577.201C127.18 577.495 127.028 577.79 126.876 578.084L117.995 573.487L118.457 572.597ZM2002 573.488L1993.12 578.084C1992.97 577.79 1992.82 577.495 1992.67 577.201L2001.54 572.597C2001.7 572.894 2001.85 573.191 2002 573.488ZM132.731 556.389L137.123 558.779C136.965 559.071 136.807 559.362 136.648 559.653L127.86 554.881C128.02 554.587 128.181 554.293 128.341 553.999L132.731 556.389ZM1991.66 553.999C1991.82 554.293 1991.98 554.587 1992.14 554.882L1983.35 559.653C1983.19 559.362 1983.04 559.071 1982.88 558.779L1991.66 553.999ZM147.295 540.527C147.131 540.815 146.966 541.104 146.802 541.392L138.112 536.444C138.278 536.154 138.443 535.863 138.608 535.572L147.295 540.527ZM1981.89 536.445L1973.2 541.392C1973.03 541.104 1972.87 540.815 1972.71 540.527L1981.39 535.572C1981.56 535.863 1981.72 536.154 1981.89 536.445ZM157.815 522.5C157.646 522.784 157.476 523.069 157.307 523.354L148.716 518.235C148.887 517.948 149.059 517.661 149.23 517.374L157.815 522.5ZM1971.28 518.235L1962.69 523.354C1962.52 523.069 1962.35 522.785 1962.18 522.501L1970.77 517.374C1970.94 517.661 1971.11 517.948 1971.28 518.235ZM160.216 499.383L168.698 504.679C168.523 504.96 168.347 505.242 168.172 505.523L159.685 500.235C159.844 499.98 160.003 499.724 160.163 499.468L160.216 499.383ZM1959.78 499.383C1959.96 499.667 1960.14 499.951 1960.31 500.235L1951.83 505.523C1951.65 505.242 1951.48 504.96 1951.3 504.679L1959.78 499.383ZM179.934 487.077C179.753 487.355 179.571 487.633 179.391 487.91L171.01 482.454C171.192 482.174 171.375 481.894 171.558 481.613L179.934 487.077ZM1948.99 482.454L1940.61 487.91C1940.43 487.633 1940.25 487.355 1940.07 487.077L1948.44 481.613C1948.62 481.894 1948.81 482.174 1948.99 482.454ZM191.51 469.71C191.323 469.984 191.137 470.258 190.95 470.532L186.814 467.721L182.68 464.911C182.868 464.634 183.056 464.358 183.244 464.081L191.51 469.71ZM1936.75 464.081C1936.94 464.358 1937.13 464.634 1937.32 464.911L1933.19 467.722L1933.18 467.721L1929.05 470.532C1928.86 470.258 1928.68 469.984 1928.49 469.71L1936.75 464.081ZM195.286 446.772L203.437 452.564C203.246 452.834 203.054 453.104 202.862 453.374L194.705 447.59C194.899 447.317 195.091 447.043 195.285 446.771L195.286 446.772ZM1925.29 447.59L1917.14 453.374C1916.95 453.104 1916.75 452.834 1916.56 452.564L1924.71 446.772C1924.91 447.044 1925.1 447.317 1925.29 447.59ZM211.678 432.69L215.695 435.667C215.498 435.933 215.301 436.2 215.104 436.466L207.063 430.522C207.262 430.253 207.461 429.984 207.66 429.715L211.678 432.69ZM1912.94 430.522L1904.9 436.466C1904.7 436.2 1904.5 435.933 1904.3 435.667L1912.34 429.715C1912.54 429.984 1912.74 430.253 1912.94 430.522ZM220.375 412.899L228.291 419.009C228.088 419.271 227.886 419.534 227.684 419.797L219.762 413.694C219.913 413.498 220.064 413.302 220.216 413.106L220.375 412.899ZM1899.62 412.899C1899.83 413.164 1900.03 413.429 1900.24 413.694L1892.32 419.797C1892.11 419.534 1891.91 419.271 1891.71 419.009L1899.62 412.899ZM237.315 399.475L241.212 402.607C241.004 402.866 240.797 403.124 240.59 403.382L232.79 397.124C232.999 396.863 233.209 396.602 233.418 396.342L237.315 399.475ZM1887.21 397.124L1883.31 400.253L1879.41 403.382C1879.2 403.124 1879 402.866 1878.79 402.607L1886.58 396.342C1886.79 396.602 1887 396.863 1887.21 397.124ZM254.454 386.465C254.241 386.719 254.028 386.974 253.815 387.229L246.142 380.817L246.141 380.816C246.355 380.56 246.57 380.304 246.785 380.047L254.454 386.465ZM1873.86 380.816L1866.18 387.229C1865.97 386.974 1865.76 386.719 1865.55 386.465L1873.21 380.047C1873.43 380.304 1873.64 380.56 1873.86 380.816ZM260.476 364.016L268.016 370.585C267.798 370.835 267.58 371.085 267.362 371.335L259.816 364.773L260.476 364.016ZM1859.52 364.016C1859.74 364.268 1859.96 364.521 1860.18 364.773L1852.64 371.335C1852.42 371.085 1852.2 370.835 1851.98 370.585L1859.52 364.016ZM281.885 354.98C281.662 355.225 281.44 355.471 281.218 355.717L273.803 349.007C274.027 348.759 274.253 348.511 274.478 348.263L281.885 354.98ZM1846.2 349.007L1838.78 355.717C1838.56 355.471 1838.34 355.225 1838.12 354.98L1845.52 348.264C1845.75 348.511 1845.97 348.759 1846.2 349.007ZM288.789 332.787L296.062 339.648C295.835 339.89 295.608 340.131 295.381 340.372L288.101 333.518L288.1 333.517C288.175 333.437 288.25 333.358 288.325 333.278L288.789 332.787ZM1831.21 332.787C1831.44 333.031 1831.67 333.273 1831.9 333.517L1824.62 340.372C1824.39 340.131 1824.16 339.89 1823.94 339.648L1831.21 332.787ZM303.403 317.598L310.54 324.602C310.308 324.838 310.076 325.075 309.844 325.312L302.7 318.315C302.934 318.075 303.168 317.836 303.402 317.597L303.403 317.598ZM1817.3 318.315L1810.16 325.312C1809.92 325.075 1809.69 324.838 1809.46 324.602L1816.6 317.598C1816.83 317.837 1817.06 318.075 1817.3 318.315ZM325.312 309.844C325.075 310.076 324.838 310.308 324.602 310.54L317.598 303.403L317.597 303.402C317.836 303.168 318.075 302.935 318.314 302.7L325.312 309.844ZM1802.4 303.402L1795.4 310.54C1795.16 310.308 1794.93 310.076 1794.69 309.844L1801.68 302.7C1801.92 302.934 1802.16 303.168 1802.4 303.402ZM333.518 288.101L340.372 295.381C340.131 295.608 339.889 295.835 339.648 296.063L332.787 288.789C333.03 288.56 333.273 288.329 333.517 288.1L333.518 288.101ZM1786.48 288.1C1786.73 288.329 1786.97 288.56 1787.21 288.789L1780.35 296.063C1780.11 295.835 1779.87 295.608 1779.63 295.381L1786.48 288.1ZM355.717 281.218C355.471 281.44 355.225 281.662 354.979 281.885L348.264 274.477C348.511 274.252 348.759 274.027 349.007 273.803L355.717 281.218ZM1771.74 274.478L1765.02 281.885C1764.78 281.662 1764.53 281.44 1764.28 281.218L1770.99 273.803C1771.24 274.027 1771.49 274.253 1771.74 274.478ZM371.335 267.362C371.085 267.58 370.835 267.798 370.585 268.016L364.016 260.476C364.268 260.256 364.521 260.036 364.773 259.816L371.335 267.362ZM1755.98 260.476L1749.42 268.016C1749.17 267.798 1748.92 267.58 1748.67 267.362L1755.23 259.816C1755.48 260.036 1755.73 260.256 1755.98 260.476ZM380.817 246.142L387.229 253.815C386.974 254.028 386.719 254.241 386.465 254.454L380.047 246.785C380.303 246.57 380.56 246.355 380.816 246.141L380.817 246.142ZM1739.95 246.785L1733.54 254.454C1733.28 254.241 1733.03 254.028 1732.77 253.815L1739.18 246.142C1739.44 246.356 1739.7 246.57 1739.95 246.785ZM403.382 240.59C403.124 240.797 402.865 241.005 402.607 241.212L396.342 233.418C396.602 233.209 396.863 232.999 397.124 232.79L403.382 240.59ZM1723.66 233.418L1717.39 241.212C1717.13 241.005 1716.88 240.797 1716.62 240.59L1722.88 232.79C1723.14 232.999 1723.4 233.209 1723.66 233.418ZM419.797 227.684C419.534 227.886 419.271 228.089 419.009 228.291L412.899 220.375C413.164 220.171 413.429 219.966 413.694 219.762L419.797 227.684ZM1706.3 219.762C1706.57 219.966 1706.83 220.171 1707.1 220.375L1700.99 228.291C1700.73 228.089 1700.47 227.886 1700.2 227.684L1706.3 219.762ZM430.521 207.064L436.466 215.105C436.2 215.301 435.933 215.498 435.667 215.695L429.715 207.66L430.521 207.064ZM1689.48 207.064C1689.75 207.262 1690.02 207.461 1690.28 207.66L1684.33 215.695C1684.07 215.498 1683.8 215.301 1683.53 215.105L1689.48 207.064ZM453.374 202.862C453.104 203.054 452.834 203.246 452.563 203.438L446.771 195.286C447.043 195.092 447.317 194.899 447.59 194.705L453.374 202.862ZM1673.23 195.285L1673.03 195.565L1667.44 203.438C1667.17 203.246 1666.9 203.054 1666.63 202.862L1672.41 194.705C1672.68 194.899 1672.96 195.091 1673.23 195.285ZM470.532 190.95C470.258 191.137 469.984 191.323 469.71 191.51L464.081 183.244C464.358 183.056 464.634 182.868 464.911 182.68L470.532 190.95ZM1655.09 182.68C1655.36 182.868 1655.64 183.056 1655.92 183.244L1650.29 191.51C1650.02 191.323 1649.74 191.137 1649.47 190.95L1655.09 182.68ZM487.91 179.391C487.632 179.571 487.355 179.753 487.077 179.934L481.613 171.558C481.894 171.375 482.174 171.192 482.454 171.01L487.91 179.391ZM1638.39 171.558L1632.92 179.934C1632.65 179.753 1632.37 179.571 1632.09 179.391L1637.54 171.01C1637.83 171.192 1638.11 171.375 1638.39 171.558ZM505.523 168.172C505.242 168.347 504.96 168.523 504.679 168.698L499.383 160.216C499.667 160.039 499.951 159.862 500.235 159.685L505.523 168.172ZM1619.76 159.685C1620.05 159.862 1620.33 160.039 1620.62 160.216L1615.32 168.698C1615.04 168.523 1614.76 168.347 1614.48 168.172L1619.76 159.685ZM523.354 157.307C523.069 157.476 522.785 157.646 522.501 157.815L517.374 149.231C517.661 149.059 517.948 148.887 518.235 148.716L523.354 157.307ZM1602.62 149.231L1597.5 157.815C1597.22 157.646 1596.93 157.476 1596.65 157.307L1601.76 148.716C1602.05 148.887 1602.34 149.059 1602.62 149.231ZM1584.43 138.608L1579.47 147.295C1579.18 147.131 1578.9 146.966 1578.61 146.802L1583.55 138.112C1583.85 138.278 1584.14 138.443 1584.43 138.608ZM541.392 146.802C541.104 146.966 540.815 147.13 540.527 147.294L535.572 138.608C535.863 138.443 536.154 138.278 536.445 138.112L541.392 146.802ZM554.882 127.86L559.653 136.648C559.362 136.806 559.071 136.965 558.779 137.123L553.999 128.341C554.247 128.206 554.494 128.071 554.741 127.937L554.882 127.86ZM1565.12 127.86C1565.41 128.02 1565.71 128.181 1566 128.341L1561.22 137.123C1560.93 136.965 1560.64 136.807 1560.35 136.648L1565.12 127.86ZM578.084 126.876C577.79 127.028 577.495 127.181 577.201 127.333L572.597 118.456C572.894 118.302 573.191 118.149 573.488 117.995L578.084 126.876ZM1547.4 118.457L1542.8 127.333C1542.5 127.181 1542.21 127.028 1541.92 126.876L1546.51 117.995C1546.81 118.149 1547.11 118.303 1547.4 118.457ZM1527.69 108.491C1527.99 108.639 1528.29 108.787 1528.59 108.936L1524.16 117.902C1523.87 117.756 1523.57 117.609 1523.27 117.462L1527.69 108.491ZM596.729 117.462C596.431 117.608 596.133 117.755 595.836 117.901L591.41 108.935C591.71 108.787 592.01 108.639 592.311 108.491L596.729 117.462ZM615.547 108.427C615.247 108.567 614.947 108.708 614.647 108.849L610.4 99.7959C610.703 99.6538 611.006 99.5119 611.309 99.3701L615.547 108.427ZM1509.6 99.7959L1505.35 108.849C1505.05 108.708 1504.75 108.568 1504.45 108.428L1508.69 99.3701C1508.99 99.5117 1509.3 99.6539 1509.6 99.7959ZM1489.51 90.6308C1489.82 90.7666 1490.13 90.902 1490.43 91.038L1486.37 100.175C1486.07 100.04 1485.76 99.9049 1485.46 99.7705L1489.51 90.6308ZM634.541 99.7705C634.238 99.9049 633.935 100.039 633.632 100.174L629.567 91.0371C629.873 90.9012 630.179 90.7664 630.484 90.6308L634.541 99.7705ZM653.725 91.4863C653.42 91.6144 653.114 91.7427 652.81 91.8711L648.929 82.6552C649.237 82.5255 649.544 82.396 649.853 82.2666L653.725 91.4863ZM1471.07 82.6552L1467.19 91.8711C1466.89 91.7428 1466.58 91.6143 1466.28 91.4863L1470.15 82.2666C1470.46 82.3958 1470.76 82.5257 1471.07 82.6552ZM1451.59 74.6777L1447.89 83.9707C1447.58 83.8483 1447.28 83.7256 1446.97 83.6035L1450.65 74.3086C1450.96 74.4319 1451.28 74.5541 1451.59 74.6777ZM673.033 83.6035C672.725 83.7256 672.417 83.8473 672.109 83.9697L668.413 74.6777C668.724 74.554 669.035 74.431 669.347 74.3076L673.033 83.6035ZM692.531 76.0947C692.22 76.2109 691.909 76.3269 691.599 76.4433L688.09 67.0791C688.404 66.9615 688.717 66.8438 689.031 66.7265L692.531 76.0947ZM1431.91 67.08L1430.16 71.7617L1428.4 76.4433C1428.09 76.3269 1427.78 76.2109 1427.47 76.0947L1430.97 66.7275C1431.28 66.8447 1431.6 66.9625 1431.91 67.08ZM712.149 68.9873C711.837 69.0969 711.525 69.2065 711.213 69.3164L707.892 59.8838C708.207 59.7728 708.523 59.6624 708.838 59.5517L712.149 68.9873ZM1412.11 59.8838L1410.45 64.6005L1408.79 69.3164C1408.48 69.2065 1408.16 69.0968 1407.85 68.9873L1411.16 59.5517C1411.48 59.6624 1411.79 59.7728 1412.11 59.8838ZM1392.16 53.0859L1389.03 62.583C1388.72 62.4791 1388.4 62.375 1388.09 62.2714L1391.21 52.7714C1391.53 52.876 1391.84 52.981 1392.16 53.0859ZM728.793 52.7714L731.915 62.2714C731.6 62.375 731.285 62.4781 730.97 62.582L727.839 53.0859L728.793 52.7714ZM1372.06 46.6796L1369.12 56.2382C1368.8 56.1411 1368.49 56.044 1368.17 55.9472L1371.1 46.3867C1371.42 46.4845 1371.74 46.5816 1372.06 46.6796ZM751.832 55.9463C751.516 56.0431 751.2 56.1401 750.884 56.2373L747.943 46.6796C748.262 46.5816 748.582 46.4844 748.9 46.3867L751.832 55.9463ZM1351.88 40.6943L1349.13 50.3086C1348.81 50.2175 1348.49 50.1259 1348.17 50.0351L1350.91 40.4179C1351.23 40.5096 1351.56 40.6024 1351.88 40.6943ZM771.827 50.0351C771.509 50.1259 771.19 50.2165 770.871 50.3076L768.123 40.6933C768.445 40.6013 768.767 40.5096 769.089 40.4179L771.827 50.0351ZM791.986 44.5117C791.665 44.5962 791.344 44.6817 791.023 44.7666L788.469 35.0976C788.793 35.012 789.117 34.9271 789.441 34.8418L791.986 44.5117ZM1330.56 34.8418C1330.88 34.9271 1331.21 35.013 1331.53 35.0986L1328.98 44.7666C1328.66 44.6817 1328.34 44.5972 1328.01 44.5127L1330.56 34.8418ZM1311.12 29.9228L1308.76 39.6396C1308.44 39.5615 1308.11 39.483 1307.79 39.4052L1310.14 29.6865C1310.47 29.765 1310.79 29.844 1311.12 29.9228ZM812.21 39.4052C811.888 39.483 811.566 39.5606 811.245 39.6386L808.884 29.9218C809.209 29.8429 809.533 29.7641 809.858 29.6855L812.21 39.4052ZM830.393 24.9345L832.549 34.6992C832.225 34.7707 831.901 34.8432 831.577 34.915L829.411 25.1523C829.738 25.0798 830.064 25.0058 830.392 24.9336L830.393 24.9345ZM1289.61 24.9345C1289.94 25.0067 1290.26 25.0798 1290.59 25.1523L1288.42 34.915C1288.1 34.8431 1287.78 34.7717 1287.45 34.7002L1289.61 24.9345ZM853.003 30.3964C852.679 30.4612 852.355 30.5267 852.031 30.5918L850.062 20.788C850.388 20.7224 850.716 20.6571 851.043 20.5918L853.003 30.3964ZM1269.94 20.788L1267.97 30.5918C1267.65 30.5267 1267.32 30.4622 1267 30.3974L1268.96 20.5918C1269.29 20.6572 1269.61 20.7223 1269.94 20.788ZM872.601 21.5927L873.482 26.5146C873.156 26.5731 872.83 26.6316 872.504 26.6904L870.73 16.8496C871.06 16.7902 871.388 16.7299 871.718 16.6709L872.601 21.5927ZM1249.27 16.8496L1247.5 26.6904C1247.17 26.6316 1246.85 26.5731 1246.52 26.5146L1248.28 16.6718C1248.61 16.7308 1248.94 16.7903 1249.27 16.8496ZM894.101 23.0302C893.772 23.0823 893.443 23.135 893.115 23.1875L891.539 13.3125C891.87 13.2596 892.202 13.2069 892.533 13.1543L894.101 23.0302ZM1227.47 13.1552C1227.8 13.2078 1228.13 13.2605 1228.46 13.3134L1226.89 23.1875C1226.56 23.1351 1226.23 23.0833 1225.9 23.0312L1227.47 13.1552ZM914.729 19.9668C914.401 20.0121 914.073 20.0578 913.745 20.1035L912.365 10.1992C912.696 10.1531 913.027 10.1082 913.357 10.0625L914.729 19.9668ZM1207.64 10.2002L1206.26 20.1035C1205.93 20.0578 1205.6 20.0121 1205.27 19.9668L1206.64 10.0625C1206.97 10.1082 1207.31 10.1541 1207.64 10.2002ZM1186.74 7.49902L1185.56 17.4287C1185.23 17.3894 1184.9 17.3504 1184.57 17.3115L1185.74 7.37988C1186.07 7.41925 1186.41 7.45935 1186.74 7.49902ZM935.434 17.3105C935.104 17.3494 934.775 17.3885 934.445 17.4277L933.262 7.49902C933.595 7.45934 933.928 7.41926 934.261 7.37988L935.434 17.3105ZM956.229 15.0625C955.901 15.0947 955.572 15.1266 955.244 15.1591L954.259 5.20899C954.59 5.17616 954.921 5.14287 955.253 5.11035L956.229 15.0625ZM1164.75 5.11035C1165.08 5.14286 1165.41 5.17617 1165.74 5.20899L1164.76 15.1591C1164.43 15.1266 1164.1 15.0947 1163.77 15.0625L1164.75 5.11035ZM976.98 13.2334C976.65 13.2592 976.32 13.2854 975.99 13.3115L975.201 3.34277C975.534 3.31641 975.868 3.29071 976.201 3.26465L976.98 13.2334ZM1144.8 3.34277L1144.41 8.32715L1144.01 13.3115C1143.68 13.2854 1143.35 13.2592 1143.02 13.2334L1143.8 3.26465C1144.13 3.29075 1144.47 3.31637 1144.8 3.34277ZM997.846 11.8086C997.514 11.8279 997.182 11.8475 996.85 11.8671L996.258 1.88574C996.593 1.86588 996.928 1.8467 997.263 1.82715L997.846 11.8086ZM1123.74 1.88574L1123.15 11.8671C1122.82 11.8475 1122.49 11.8279 1122.16 11.8086L1122.74 1.82715C1123.07 1.8467 1123.41 1.86588 1123.74 1.88574ZM1018.68 10.7978C1018.35 10.8106 1018.02 10.8238 1017.69 10.8369L1017.3 0.845703C1017.63 0.832494 1017.96 0.818565 1018.3 0.805664L1018.68 10.7978ZM1102.7 0.845703L1102.31 10.8369C1101.98 10.8238 1101.65 10.8106 1101.32 10.7978L1101.7 0.805664C1102.04 0.818562 1102.37 0.832498 1102.7 0.845703ZM1039.54 10.1953C1039.21 10.2016 1038.88 10.2082 1038.55 10.2148L1038.35 0.217773C1038.68 0.211057 1039.02 0.203671 1039.35 0.197266L1039.54 10.1953ZM1081.66 0.217773L1081.46 10.2148C1081.12 10.2082 1080.79 10.2016 1080.46 10.1953L1080.65 0.197266C1080.99 0.203667 1081.32 0.211061 1081.66 0.217773Z" fill="#fff"/>
</svg>