
<svg xmlns="http://www.w3.org/2000/svg" width="445" height="445" viewBox="0 0 445 445" fill="none">
<path d="M203.334 434.148L202.443 444.107C202.119 444.078 201.795 444.049 201.472 444.019L202.405 434.062C202.715 434.091 203.024 434.121 203.334 434.148ZM243.527 444.019C243.204 444.049 242.88 444.078 242.556 444.107L241.666 434.148C241.976 434.121 242.285 434.091 242.595 434.062L243.527 444.019ZM183.882 431.501L182.979 436.418V436.419L182.076 441.336C181.756 441.277 181.435 441.217 181.115 441.157L182.964 431.331C183.27 431.389 183.576 431.445 183.882 431.501ZM263.884 441.157C263.564 441.217 263.243 441.277 262.923 441.336L262.021 436.419L261.118 431.501C261.424 431.445 261.73 431.389 262.036 431.331L263.884 441.157ZM164.767 427.066L162.057 436.69C161.742 436.602 161.428 436.513 161.114 436.423L163.868 426.811C164.167 426.896 164.467 426.982 164.767 427.066ZM283.885 436.423C283.571 436.513 283.257 436.602 282.942 436.69L280.233 427.066C280.533 426.982 280.833 426.896 281.132 426.811L283.885 436.423ZM146.149 420.874L142.555 430.204C142.25 430.087 141.946 429.968 141.642 429.85L145.277 420.536C145.568 420.649 145.859 420.762 146.149 420.874ZM303.357 429.85C303.053 429.968 302.749 430.087 302.444 430.204L298.852 420.874C299.142 420.762 299.433 420.649 299.723 420.536L303.357 429.85ZM128.185 412.978L123.739 421.936C123.447 421.79 123.155 421.643 122.863 421.497L127.348 412.561C127.626 412.7 127.905 412.839 128.185 412.978ZM322.136 421.497C321.844 421.643 321.552 421.79 321.26 421.936L316.815 412.978C317.095 412.839 317.374 412.7 317.652 412.561L322.136 421.497ZM111.025 403.45L105.771 411.958C105.494 411.786 105.216 411.614 104.939 411.441L110.23 402.956C110.495 403.121 110.76 403.286 111.025 403.45ZM340.06 411.441C339.783 411.614 339.505 411.786 339.228 411.958L333.975 403.45C334.24 403.286 334.505 403.121 334.77 402.956L340.06 411.441ZM94.8145 392.377L88.7998 400.364C88.5389 400.168 88.2785 399.971 88.0186 399.773L94.0684 391.812C94.3166 392.001 94.5654 392.189 94.8145 392.377ZM356.98 399.773C356.721 399.971 356.46 400.168 356.199 400.364L350.186 392.377C350.435 392.189 350.683 392.001 350.932 391.812L356.98 399.773ZM79.6875 379.858L72.9648 387.26C72.7233 387.04 72.4828 386.82 72.2422 386.6L78.9961 379.228C79.226 379.438 79.4567 379.649 79.6875 379.858ZM372.757 386.6C372.516 386.82 372.276 387.04 372.034 387.26L365.312 379.858C365.543 379.649 365.774 379.438 366.004 379.228L372.757 386.6ZM65.7725 366.004L58.3994 372.757C58.179 372.516 57.9586 372.276 57.7393 372.034L65.1416 365.312C65.3512 365.543 65.5618 365.774 65.7725 366.004ZM387.26 372.034C387.04 372.276 386.82 372.516 386.6 372.757L379.228 366.004C379.438 365.774 379.649 365.543 379.858 365.312L387.26 372.034ZM53.1875 350.932L49.2051 353.956L49.2061 353.957L45.2256 356.98C45.0281 356.721 44.8312 356.46 44.6348 356.199L52.623 350.186C52.8106 350.435 52.9989 350.683 53.1875 350.932ZM400.364 356.199C400.168 356.46 399.971 356.721 399.773 356.98L395.794 353.957L391.812 350.932C392.001 350.683 392.189 350.435 392.377 350.186L400.364 356.199ZM42.0439 334.77L33.5576 340.06C33.3849 339.783 33.2125 339.505 33.041 339.228L41.5498 333.975C41.7137 334.24 41.879 334.505 42.0439 334.77ZM411.958 339.228C411.786 339.505 411.614 339.783 411.441 340.06L402.956 334.77C403.121 334.505 403.286 334.24 403.45 333.975L411.958 339.228ZM32.4395 317.652L23.502 322.136C23.3556 321.844 23.2086 321.552 23.0635 321.26L32.0225 316.815C32.161 317.095 32.2997 317.374 32.4395 317.652ZM421.936 321.26C421.79 321.552 421.643 321.844 421.497 322.136L412.561 317.652C412.7 317.374 412.839 317.095 412.978 316.815L421.936 321.26ZM24.4639 299.723L15.1494 303.357C15.0307 303.053 14.9123 302.749 14.7949 302.444L24.126 298.852C24.2379 299.142 24.3507 299.433 24.4639 299.723ZM430.204 302.444C430.087 302.749 429.968 303.053 429.85 303.357L425.193 301.541L420.536 299.723C420.649 299.433 420.762 299.142 420.874 298.852L430.204 302.444ZM18.1895 281.132L8.57617 283.885C8.48628 283.571 8.39714 283.257 8.30859 282.942L17.9336 280.233C18.018 280.533 18.1037 280.833 18.1895 281.132ZM436.69 282.942C436.602 283.257 436.513 283.571 436.423 283.885L426.811 281.132C426.896 280.833 426.982 280.533 427.066 280.233L436.69 282.942ZM13.6689 262.036L3.8418 263.884C3.78159 263.564 3.72192 263.243 3.66309 262.923L13.499 261.118C13.5552 261.424 13.6114 261.73 13.6689 262.036ZM436.418 262.021L441.336 262.923C441.277 263.243 441.217 263.564 441.157 263.884L436.244 262.961L431.331 262.036C431.389 261.73 431.445 261.424 431.501 261.118L436.418 262.021ZM10.9375 242.595L0.980469 243.527C0.950127 243.204 0.920555 242.88 0.891602 242.556L10.8516 241.666C10.8792 241.976 10.9085 242.285 10.9375 242.595ZM434.148 241.666L444.107 242.556C444.078 242.88 444.049 243.204 444.019 243.527L434.062 242.595C434.091 242.285 434.121 241.976 434.148 241.666ZM10.9375 202.405C10.9085 202.715 10.8792 203.024 10.8516 203.334L0.891602 202.443C0.920557 202.119 0.950125 201.795 0.980469 201.472L10.9375 202.405ZM444.107 202.443L434.148 203.334C434.121 203.024 434.091 202.715 434.062 202.405L444.019 201.472C444.049 201.795 444.078 202.119 444.107 202.443ZM8.75586 182.039L13.6689 182.964C13.6114 183.27 13.5552 183.576 13.499 183.882L8.58105 182.979L3.66309 182.076C3.72192 181.756 3.78159 181.435 3.8418 181.115L8.75586 182.039ZM441.157 181.115C441.217 181.435 441.277 181.756 441.336 182.076L436.419 182.979H436.418L431.501 183.882C431.445 183.576 431.389 183.27 431.331 182.964L441.157 181.115ZM8.57617 161.114L18.1895 163.868C18.1037 164.167 18.018 164.467 17.9336 164.767L8.30859 162.057C8.3526 161.9 8.39609 161.744 8.44043 161.588L8.57617 161.114ZM436.423 161.114C436.513 161.428 436.602 161.742 436.69 162.057L427.066 164.767C426.982 164.467 426.896 164.167 426.811 163.868L436.423 161.114ZM19.8066 143.459L24.4639 145.277C24.3506 145.568 24.238 145.859 24.126 146.149L14.7949 142.555C14.9123 142.25 15.0307 141.946 15.1494 141.642L19.8066 143.459ZM429.85 141.642C429.968 141.946 430.087 142.25 430.204 142.555L420.874 146.149C420.762 145.859 420.649 145.568 420.536 145.277L429.85 141.642ZM32.4395 127.348C32.2997 127.626 32.161 127.905 32.0225 128.185L23.0645 123.74L23.0635 123.739C23.2086 123.447 23.3556 123.155 23.502 122.863L32.4395 127.348ZM421.497 122.863C421.643 123.155 421.79 123.447 421.936 123.739L412.978 128.185C412.839 127.905 412.7 127.626 412.561 127.348L421.497 122.863ZM33.5576 104.939L42.0439 110.23C41.879 110.495 41.7146 110.76 41.5508 111.025L33.041 105.771L33.5576 104.939ZM411.441 104.939C411.614 105.216 411.786 105.494 411.958 105.771L403.45 111.025C403.286 110.76 403.121 110.495 402.956 110.23L411.441 104.939ZM53.1875 94.0684C52.9989 94.3166 52.8106 94.5654 52.623 94.8145L44.6348 88.7998C44.8312 88.5389 45.0281 88.2785 45.2256 88.0186L53.1875 94.0684ZM399.773 88.0186C399.971 88.2785 400.168 88.5389 400.364 88.7998L392.377 94.8145C392.189 94.5654 392.001 94.3166 391.812 94.0684L399.773 88.0186ZM65.7725 78.9961C65.5618 79.226 65.3512 79.4567 65.1416 79.6875L57.7393 72.9648C57.9586 72.7233 58.179 72.4828 58.3994 72.2422L65.7725 78.9961ZM386.6 72.2422C386.82 72.4828 387.04 72.7233 387.26 72.9648L379.858 79.6875C379.649 79.4567 379.438 79.226 379.228 78.9961L386.6 72.2422ZM79.6875 65.1416C79.4567 65.3512 79.226 65.5618 78.9961 65.7725L72.2422 58.3994C72.4828 58.179 72.7233 57.9586 72.9648 57.7393L79.6875 65.1416ZM372.034 57.7393C372.276 57.9586 372.516 58.179 372.757 58.3994L366.004 65.7725C365.774 65.5618 365.543 65.3512 365.312 65.1416L372.034 57.7393ZM94.8145 52.623C94.5654 52.8106 94.3166 52.9989 94.0684 53.1875L88.0186 45.2256C88.2785 45.0281 88.5389 44.8312 88.7998 44.6348L94.8145 52.623ZM356.199 44.6348C356.46 44.8312 356.721 45.0281 356.98 45.2256L350.932 53.1875C350.683 52.9989 350.435 52.8106 350.186 52.623L356.199 44.6348ZM111.025 41.5498C110.76 41.7136 110.495 41.879 110.23 42.0439L104.939 33.5576C105.216 33.3849 105.494 33.2125 105.771 33.041L111.025 41.5498ZM340.06 33.5576L334.77 42.0439C334.505 41.879 334.24 41.7146 333.975 41.5508L339.228 33.041C339.505 33.2125 339.783 33.3849 340.06 33.5576ZM123.74 23.0645L128.185 32.0225C127.905 32.161 127.626 32.2997 127.348 32.4395L122.863 23.502C123.155 23.3556 123.447 23.2086 123.739 23.0635L123.74 23.0645ZM321.26 23.0635C321.552 23.2086 321.844 23.3556 322.136 23.502L317.652 32.4395C317.374 32.2997 317.095 32.161 316.815 32.0225L321.26 23.0635ZM146.149 24.126C145.859 24.238 145.568 24.3506 145.277 24.4639L141.642 15.1494C141.946 15.0307 142.25 14.9123 142.555 14.7949L146.149 24.126ZM302.444 14.7949C302.749 14.9123 303.053 15.0307 303.357 15.1494L301.541 19.8066L301.54 19.8057L299.723 24.4639C299.433 24.3507 299.142 24.2379 298.852 24.126L302.444 14.7949ZM164.767 17.9336C164.467 18.018 164.167 18.1037 163.868 18.1895L161.114 8.57617C161.428 8.48628 161.742 8.39714 162.057 8.30859L164.767 17.9336ZM282.942 8.30859C283.257 8.39714 283.571 8.48628 283.885 8.57617L281.132 18.1895C280.833 18.1037 280.533 18.018 280.233 17.9336L282.942 8.30859ZM183.882 13.499C183.576 13.5552 183.27 13.6114 182.964 13.6689L181.115 3.8418C181.435 3.78159 181.756 3.72192 182.076 3.66309L183.882 13.499ZM262.923 3.66309C263.243 3.72192 263.564 3.78159 263.884 3.8418L262.961 8.75586L262.96 8.75488L262.036 13.6689C261.73 13.6114 261.424 13.5552 261.118 13.499L262.923 3.66309ZM203.334 10.8516C203.024 10.8792 202.715 10.9085 202.405 10.9375L201.472 0.980469C201.795 0.950125 202.119 0.920557 202.443 0.891602L203.334 10.8516ZM243.527 0.980469L242.595 10.9375C242.285 10.9085 241.976 10.8792 241.666 10.8516L242.556 0.891602C242.88 0.920555 243.204 0.950127 243.527 0.980469Z" fill="#fff"/>
</svg>